<?xml version="1.0" encoding="UTF-8"?>
<svg id="Layer_1" xmlns="http://www.w3.org/2000/svg" viewBox="0 0 1351.85 1979.03">
  <path d="M1351.74,780.95c0-1.88-.14-3.69-.47-5.64-.11-1.3-.36-2.68-.69-4.05-.47-2.79-1.27-5.46-2.17-8.17-.25-.58-.47-1.23-.69-1.77-.25-.76-.58-1.48-.94-2.32-.43-1.19-1.01-2.42-1.59-3.58-.25-.65-.58-1.3-.94-1.88-.54-1.19-1.23-2.35-1.92-3.47-2.21-3.83-4.96-7.6-8.07-11.18-1.01-1.23-2.06-2.39-3.18-3.51-1.27-1.48-2.64-2.86-4.16-4.16-.9-.9-1.81-1.74-2.86-2.53-1.01-.98-2.17-1.88-3.44-2.79-1.37-1.19-2.86-2.28-4.38-3.33h-.11c-.69-.58-1.37-1.05-2.06-1.48-.69-.47-1.37-.98-2.06-1.37-.22-.18-.47-.33-.69-.4-1.16-.83-2.42-1.56-3.65-2.28-1.52-.9-2.89-1.74-4.38-2.46-1.59-.98-3.33-1.88-5.06-2.6-3.18-1.48-6.51-2.93-9.84-4.23-1.09-.47-2.17-.9-3.33-1.23.72-1.34,1.34-2.71,1.81-4.16.69-1.63,1.16-3.36,1.63-4.99.32-.98.58-1.95.8-2.93.22-.65.36-1.37.47-2.13.22-1.3.58-2.68.69-4.05.43-2.79.58-5.57.58-8.32s-.14-5.46-.58-8.32c-.11-1.3-.47-2.71-.69-4.09-.11-.65-.25-1.3-.47-1.95-.22-1.05-.47-2.03-.8-3.11-.25-1.12-.69-2.28-1.05-3.33-.22-.58-.43-1.16-.58-1.63-.8-2.06-1.7-4.16-2.75-6.19-.43-.9-.9-1.88-1.48-2.79-1.84-3.69-4.23-7.16-7.13-10.67-.69-.9-1.37-1.81-2.17-2.71-1.01-1.23-2.06-2.35-3.07-3.51-1.16-1.12-2.32-2.28-3.47-3.4-1.12-1.09-2.39-2.21-3.65-3.29-.94-.8-1.95-1.7-3.22-2.5,0-.11-.11-.18-.22-.25-1.37-1.23-2.75-2.28-4.38-3.36h-.11c-.36-.33-.69-.54-1.16-.8v-.07c-.33-.33-.8-.58-1.27-.83-.69-.47-1.37-.9-2.06-1.3-1.05-.61-2.1-1.19-3.18-1.66l-.36-.94c-.22-.14-.47-.25-.69-.4,0-.07.11-.18.11-.33v-.07c9.51-38.27,4.38-83.67-15.95-134.38-1.48-3.58-3.22-7.34-4.81-11-.47-1.16-.9-2.32-1.37-3.44-.94-2.13-1.84-4.23-2.86-6.44v-.07c0-.11-.14-.18-.14-.25s-.11-.18-.11-.25c-3.33-7.16-6.98-14.43-11-21.7-18.7-34.98-43.37-70.68-73.21-106.24h-.11c0-.07-.11-.22-.36-.4v-.07c-3.22-3.76-6.4-7.6-9.73-11.43-.14-.14-.25-.25-.36-.4-10.78-12.3-22.14-24.56-34.07-36.86l-1.37-1.37c-10.67-10.92-21.92-21.85-33.6-32.7l-3.91-3.58c-1.05-.9-2.06-1.88-3.11-2.86-.11-.18-.33-.33-.47-.51-6.4-5.79-12.95-11.58-19.61-17.36-.47-.4-.9-.8-1.37-1.23-13.53-11.72-27.53-23.4-42.1-34.87l-.58,1.19-.22.58c-.14-.14-.36-.33-.58-.47-6.66-5.97-13.67-11.83-20.91-17.69-.11-.18-.22-.25-.33-.33-7.23-5.82-14.69-11.61-22.39-17.22-2.75-2.03-5.5-4.09-8.36-6.11l-.11-.07c-.14-.11-.25-.18-.36-.25h-.11c0-.07-.22-.25-.36-.33-.11-.07-.33-.25-.43-.25-5.64-4.09-11.36-7.92-17-11.83-4.92-3.26-9.87-6.44-14.9-9.62-.11-.07-.22-.14-.36-.25-8.14-5.03-16.39-10.02-24.67-14.76-.22-.14-.43-.22-.69-.4l.69-.14,1.63-.43c-14-8.97-28.21-17.69-42.47-26.01-2.39-1.52-4.81-3-7.23-4.38-.58-.33-1.12-.65-1.59-.9v-.07c-8.03-4.59-16.06-9.22-24.09-13.64-.25-.07-.47-.25-.69-.33v-.07c-1.37-.72-2.64-1.48-3.91-2.13l-5.28-2.75v-.11c-.33-.22-.69-.47-1.05-.54l-.11-.11c-14.58-7.99-29.12-15.55-43.8-22.82h-.14c-.54-.4-1.23-.72-1.81-.98h-.14c-17.33-8.72-34.76-16.86-52.2-24.63h-.11c-.11-.07-.22-.14-.47-.22-5.28-2.39-10.53-4.67-15.95-6.94-5.39,2.28-10.67,4.56-15.92,6.94-.25.07-.36.14-.47.22h-.11c-17.43,7.78-34.91,15.92-52.23,24.63h-.11c-.58.25-1.27.58-1.84.98h-.11c-14.69,7.27-29.26,14.83-43.8,22.82l-.14.11c-.33.07-.69.33-1.01.54v.11l-5.28,2.75c-1.27.65-2.53,1.41-3.91,2.13v.07c-.22.07-.47.25-.69.33-8.03,4.41-16.06,9.04-24.09,13.64v.07c-.47.25-1.05.58-1.59.9-2.42,1.37-4.85,2.86-7.23,4.38-14.25,8.32-28.47,17.04-42.47,26.01l1.59.43.69.14c-.22.18-.43.25-.69.4-8.25,4.74-16.49,9.73-24.67,14.76-.11.11-.22.18-.33.25-5.06,3.18-9.98,6.37-14.9,9.62-5.64,3.91-11.36,7.74-17,11.83-.11,0-.33.18-.47.25-.11.07-.33.25-.33.33h-.11c-.11.07-.25.14-.36.25l-.11.07c-2.86,2.03-5.61,4.09-8.36,6.11-7.7,5.61-15.16,11.39-22.39,17.22-.11.07-.22.14-.36.33l-22.25,16.39c-14.58,11.47-28.58,23.15-42.1,34.87-.47.43-.9.83-1.37,1.23-6.66,5.79-13.2,11.58-19.64,17.36-.11.18-.33.33-.43.51-1.05.98-2.06,1.95-3.11,2.86l-3.91,3.58c-11.68,10.85-22.93,21.78-33.6,32.7l-1.37,1.37c-11.94,12.3-23.29,24.56-34.07,36.86-.11.14-.25.25-.36.4-3.33,3.83-6.55,7.67-9.73,11.43v.07c-.25.18-.36.33-.36.4h-.11c-29.84,35.56-54.51,71.26-73.21,106.24-4.02,7.27-7.67,14.54-11,21.7,0,.07-.14.18-.14.25s-.11.14-.11.25v.07c-1.01,2.21-1.95,4.3-2.86,6.44-.47,1.12-.9,2.28-1.37,3.44-1.59,3.65-3.33,7.42-4.81,11-20.33,50.71-25.46,96.11-15.95,134.38v.07c0,.14.11.25.11.33-.22.14-.47.25-.69.4l-.11.07c-1.16.51-2.32,1.16-3.44,1.81-.69.4-1.37.83-2.06,1.3-.47.25-.94.51-1.27.83v.07c-.47.25-.83.47-1.16.8h-.11c-1.63,1.09-3,2.13-4.38,3.36-.11.07-.22.14-.22.25-1.27.8-2.32,1.7-3.22,2.5-1.27,1.09-2.53,2.21-3.65,3.29-1.16,1.12-2.32,2.28-3.47,3.4-1.01,1.16-2.06,2.28-3.07,3.51-.8.9-1.48,1.81-2.21,2.71-2.86,3.51-5.24,6.98-7.09,10.67-.58.9-1.05,1.88-1.48,2.79-1.05,2.03-1.95,4.12-2.79,6.19-.11.47-.33,1.05-.54,1.63-.36,1.05-.83,2.21-1.05,3.33-.33,1.09-.58,2.06-.8,3.11-.25.65-.36,1.3-.47,1.95-.22,1.37-.58,2.79-.69,4.09-.47,2.86-.58,5.53-.58,8.32s.11,5.53.58,8.32c.11,1.37.47,2.75.69,4.05.11.76.22,1.48.47,2.13.22.98.47,1.95.8,2.93.47,1.63.9,3.36,1.59,4.99.58,1.63,1.27,3.18,2.1,4.7v.11c-1.27.33-2.42.8-3.58,1.3-3.33,1.3-6.66,2.75-9.88,4.23-1.7.72-3.44,1.63-5.03,2.6-1.48.72-2.86,1.56-4.38,2.46-1.27.72-2.5,1.45-3.65,2.28-.25.07-.47.22-.69.4-.69.4-1.37.9-2.06,1.37-.69.43-1.37.9-2.06,1.48h-.14c-1.48,1.05-2.97,2.13-4.34,3.33-1.27.9-2.42,1.81-3.44,2.79-1.05.8-1.95,1.63-2.89,2.53-1.48,1.3-2.86,2.68-4.12,4.16-1.12,1.12-2.17,2.28-3.22,3.51-3.07,3.58-5.82,7.34-8.03,11.18-.69,1.12-1.37,2.28-1.95,3.47-.33.58-.69,1.23-.9,1.88-.58,1.16-1.16,2.39-1.59,3.58-.36.83-.69,1.56-.94,2.32-.22.54-.43,1.19-.69,1.77-.9,2.71-1.7,5.39-2.17,8.17-.36,1.37-.58,2.75-.69,4.05-.36,1.95-.47,3.76-.47,5.64-.11.9-.11,1.77-.11,2.68v1195.41h1351.85V783.63c0-.9,0-1.77-.11-2.68ZM1202.57,1783.31H149.24v-953.63c0-.72,0-1.45.11-2.17,0-1.48.07-2.93.36-4.49.07-1.01.25-2.13.54-3.26.36-2.21.98-4.34,1.7-6.47.18-.47.36-.98.51-1.45.18-.58.47-1.16.72-1.81.36-.98.8-1.95,1.27-2.86.18-.54.43-1.05.72-1.52.43-.98.98-1.88,1.52-2.79,1.7-3.07,3.83-6.04,6.26-8.9.8-.98,1.59-1.92,2.5-2.82.98-1.16,2.06-2.28,3.22-3.29.72-.72,1.41-1.37,2.24-2.03.8-.8,1.7-1.52,2.68-2.21,1.05-.98,2.24-1.84,3.4-2.68h.07c.54-.47,1.09-.83,1.63-1.16.51-.4,1.05-.8,1.59-1.12.18-.14.36-.25.54-.33.9-.65,1.88-1.23,2.86-1.81,1.16-.72,2.24-1.37,3.4-1.95,1.27-.8,2.6-1.52,3.94-2.1,2.5-1.16,5.1-2.35,7.67-3.36.9-.4,1.81-.8,2.79-1.05v-.07c-.61-1.23-1.16-2.46-1.63-3.76-.51-1.3-.87-2.68-1.23-3.98-.29-.8-.47-1.56-.61-2.35-.18-.51-.29-1.09-.36-1.66-.18-1.05-.47-2.17-.54-3.26-.36-2.21-.47-4.45-.47-6.66s.11-4.34.47-6.62c.07-1.05.36-2.13.54-3.26.07-.51.18-1.05.36-1.56.14-.87.33-1.63.61-2.5.18-.9.54-1.81.8-2.64.18-.47.36-.9.43-1.3.65-1.63,1.34-3.33,2.17-4.96.36-.72.72-1.48,1.16-2.21,1.41-2.93,3.29-5.71,5.53-8.54.54-.69,1.09-1.41,1.7-2.13.8-.98,1.63-1.88,2.42-2.79.9-.9,1.77-1.84,2.68-2.75.9-.83,1.88-1.74,2.86-2.6.72-.65,1.52-1.34,2.5-1.99,0-.07.11-.14.18-.22,1.09-.98,2.13-1.81,3.4-2.68h.11c.25-.25.51-.43.87-.65v-.04c.29-.29.65-.47.98-.65.54-.4,1.09-.72,1.63-1.05.9-.54,1.77-1.05,2.68-1.45l.11-.04c.14-.14.33-.22.51-.33,0-.07-.07-.14-.07-.29v-.04c-7.42-30.53-3.4-66.74,12.41-107.21,1.19-2.86,2.53-5.86,3.76-8.79.36-.9.72-1.81,1.09-2.71.72-1.7,1.41-3.4,2.24-5.14v-.07c0-.07.07-.14.07-.18,0-.07.11-.14.11-.22,2.57-5.72,5.43-11.5,8.57-17.29,14.58-27.92,33.78-56.39,57.04-84.75h.07c0-.07.11-.22.29-.33v-.07c2.5-3,4.99-6.04,7.6-9.12.07-.11.18-.18.25-.33,8.39-9.8,17.25-19.57,26.55-29.37.36-.4.72-.72,1.09-1.12,8.32-8.72,17.07-17.43,26.19-26.08l3.04-2.86c.8-.72,1.63-1.52,2.42-2.28.07-.14.25-.25.36-.4,4.99-4.63,10.09-9.22,15.26-13.85.36-.33.72-.65,1.09-.98,10.56-9.37,21.45-18.66,32.81-27.85l17.36-13.06c.07-.14.14-.18.25-.25,5.64-4.63,11.43-9.26,17.43-13.75,2.13-1.63,4.3-3.26,6.51-4.85l.11-.07c.07-.07.18-.14.25-.22h.11s.18-.18.25-.25c.11-.07.25-.18.36-.18,4.38-3.26,8.86-6.33,13.24-9.44,3.83-2.6,7.67-5.14,11.61-7.67.11-.07.18-.14.25-.22,6.37-4.02,12.8-7.99,19.24-11.76.18-.14.36-.18.54-.33l-.54-.14-1.27-.33c10.92-7.13,21.99-14.11,33.1-20.73,1.88-1.23,3.76-2.42,5.61-3.51.47-.29.9-.54,1.27-.72v-.07c6.26-3.65,12.52-7.34,18.77-10.85.18-.07.36-.22.54-.25v-.07c1.09-.58,2.06-1.19,3.04-1.7l4.12-2.21v-.07c.25-.18.51-.4.8-.47l.07-.04c11.36-6.4,22.72-12.44,34.15-18.23h.11c.43-.33.98-.58,1.41-.76h.11c13.49-6.98,27.09-13.49,40.69-19.64h.07c.07-.07.18-.14.36-.22,4.12-1.88,8.21-3.69,12.41-5.53,4.23,1.84,8.32,3.65,12.44,5.53.18.07.25.14.36.22h.07c13.6,6.15,27.2,12.66,40.69,19.64h.07c.47.18,1.01.43,1.45.76h.07c11.47,5.79,22.82,11.83,34.18,18.23l.07.04c.25.07.54.29.8.47v.07l4.12,2.21c.98.51,1.95,1.12,3.04,1.7v.07c.18.04.36.18.54.25,6.26,3.51,12.52,7.2,18.77,10.85v.07c.36.18.8.43,1.23.72,1.88,1.09,3.76,2.28,5.64,3.51,11.1,6.62,22.17,13.6,33.1,20.73l-1.27.33-.54.14c.18.14.36.18.54.33,6.44,3.76,12.88,7.74,19.21,11.76.11.07.18.14.29.22,3.94,2.53,7.78,5.06,11.61,7.67,4.38,3.11,8.86,6.19,13.24,9.44.07,0,.25.11.36.18.07.07.25.22.25.25h.11c.07.07.18.14.25.22l.11.07c2.21,1.59,4.38,3.22,6.51,4.85,6,4.49,11.79,9.12,17.43,13.75.07.07.18.11.25.25,5.64,4.67,11.1,9.37,16.28,14.11.18.14.36.25.47.4l.14-.47.47-.98c11.36,9.19,22.25,18.48,32.81,27.85.36.33.72.65,1.09.98,5.17,4.63,10.27,9.22,15.26,13.85.11.14.29.25.36.4.8.76,1.63,1.56,2.42,2.28l3.04,2.86c9.12,8.65,17.87,17.36,26.19,26.08.36.4.72.72,1.09,1.12,9.3,9.8,18.12,19.57,26.55,29.37.07.14.18.22.25.33,2.6,3.07,5.1,6.11,7.6,9.12v.07c.18.11.29.25.29.33h.07c23.26,28.36,42.47,56.83,57.04,84.75,3.11,5.79,6,11.57,8.57,17.29,0,.07.11.14.11.22,0,.04.07.11.07.18v.07c.8,1.74,1.52,3.44,2.24,5.14.36.9.72,1.81,1.08,2.71,1.23,2.93,2.57,5.93,3.73,8.79,15.84,40.48,19.86,76.68,12.44,107.21v.04c0,.14-.11.22-.11.29.11.07.22.11.36.18.72.36,1.45.76,2.21,1.19.54.33,1.08.65,1.59,1.05.36.18.72.4,1.01.65v.07c.33.18.61.4.87.65h.11c1.23.83,2.31,1.7,3.4,2.68.07.04.18.11.18.18.98.65,1.77,1.37,2.5,2.03.98.83,1.95,1.74,2.86,2.6.9.9,1.77,1.81,2.68,2.71.8.9,1.63,1.84,2.42,2.79.62.72,1.16,1.45,1.7,2.17,2.24,2.79,4.09,5.57,5.53,8.5.43.72.8,1.52,1.16,2.24.8,1.59,1.52,3.29,2.13,4.92.11.4.29.87.47,1.3.25.87.61,1.77.8,2.68.25.83.43,1.63.62,2.46.18.54.29,1.05.36,1.56.18,1.12.47,2.24.54,3.26.36,2.28.43,4.45.43,6.66s-.07,4.41-.43,6.62c-.07,1.12-.36,2.21-.54,3.26-.07.58-.18,1.16-.36,1.7-.18.76-.36,1.56-.62,2.35-.36,1.27-.72,2.64-1.27,3.94-.36,1.09-.8,2.1-1.3,3.11l.47,1.16c.98.25,1.88.65,2.79,1.05,2.57,1.01,5.17,2.21,7.67,3.36,1.34.58,2.68,1.3,3.94,2.1,1.16.58,2.24,1.23,3.4,1.95.98.58,1.95,1.16,2.86,1.81.18.07.36.18.54.33.54.33,1.05.72,1.59,1.12.54.33,1.09.69,1.63,1.16h.07c1.16.83,2.32,1.7,3.4,2.68.98.69,1.88,1.41,2.68,2.21.8.65,1.52,1.3,2.24,2.03,1.16,1.01,2.24,2.13,3.22,3.29.9.9,1.7,1.84,2.5,2.82,2.42,2.86,4.56,5.82,6.26,8.9.54.9,1.09,1.81,1.52,2.79.29.47.54.98.72,1.52.43.9.9,1.88,1.27,2.86.25.65.51,1.23.69,1.81.18.47.36.98.54,1.45.72,2.13,1.34,4.27,1.7,6.47.29,1.12.47,2.24.54,3.26.25,1.56.36,3,.36,4.49.07.72.07,1.45.07,2.17v953.63Z" style="fill: #FFF;"/>
</svg>