<?xml version="1.0" encoding="UTF-8"?>
<svg id="Layer_1" xmlns="http://www.w3.org/2000/svg" viewBox="0 0 1419.68 809.39">
  <defs>
    <style>
      .cls-1 {
        fill: #010101;
      }

      .cls-2 {
        fill: #020202;
      }

      .cls-3 {
        fill: #bf202f;
      }

      .cls-4 {
        fill: #bf1f2f;
      }

      .cls-5 {
        fill: #070505;
      }

      .cls-6 {
        fill: #bf2030;
      }

      .cls-7 {
        fill: #020000;
      }

      .cls-8 {
        fill: #f3ebeb;
      }

      .cls-9 {
        fill: #123c3c;
      }

      .cls-10 {
        fill: #020101;
      }

      .cls-11 {
        fill: #be2030;
      }

      .cls-12 {
        fill: #c02131;
      }

      .cls-13 {
        fill: #030202;
      }
    </style>
  </defs>
  <path class="cls-2" d="M385.67,546.87c-.51.61-.96,1.28-1.52,1.82-51.75,49.53-102.81,99.78-155.22,148.62-31.05,28.94-62.39,57.56-96.13,83.41-8.5,6.51-17.19,12.78-26.66,17.83-16.5,8.8-33.98,12.98-52.65,9.77-18.58-3.19-32.35-13.52-41.61-29.79-10.07-17.7-12.84-36.98-11.59-56.99,1.41-22.48,7.87-43.91,14.01-65.38,10.23-35.79,22.57-70.83,38.7-104.42,6.78-14.12,14.18-27.93,24.4-39.98,1.64-1.94,3.44-3.74,5.2-5.58.54-.57,1.11-1.2,2.01-.42.86.74,1.04,1.49.28,2.38-.09.1-.17.21-.24.32-11.94,16.85-18.38,36.14-24.53,55.54-11.06,34.87-18.62,70.57-24.85,106.57-2.12,12.26-4.14,24.54-5.25,36.95-1.18,13.32-.46,26.48,3.58,39.32,2.11,6.7,5.16,12.93,10.16,18,6.17,6.25,13.57,8.69,22.31,7.22,8.46-1.42,16.16-4.48,23.11-9.57,13.31-9.76,25.59-20.73,37.56-32.03,34.39-32.45,67.14-66.54,100-100.51,26.72-27.61,53.41-55.25,80.11-82.88,1.73-.06,3.46-.17,5.19-.17,24.54-.01,49.09-.01,73.63-.01Z"/>
  <path class="cls-6" d="M1036.12,501.22c0,11.91.12,23.83-.11,35.74-.06,3.34,1.12,4.02,4.1,3.88,4.54-.21,9.1.05,13.65-.1,2.23-.07,3.1.58,3.03,2.92-.06,2.08-.39,3.1-2.85,3.09-23.69-.09-47.39-.08-71.08,0-2.37,0-2.89-.85-2.91-3.02-.02-2.26.67-3.06,2.96-2.98,4.14.15,8.31-.12,12.44.09,2.71.14,3.34-.87,3.32-3.42-.1-15.13-.04-30.25-.04-45.38,0-19.16-.01-38.32,0-57.49,0-1.86,0-3.71-.76-5.46,1.22-1.22.73-2.78.73-4.19.03-31.96-.02-63.93.09-95.89,0-3.02-.59-4.27-3.88-4.02-4.12.31-8.29-.03-12.43.12-2.1.08-2.51-.85-2.37-2.63.12-1.54-.43-3.43,2.22-3.17.66.06,1.34,0,2.01,0,31.16,0,62.32.03,93.48-.01,9.3-.01,18.4,1.14,27.22,4.12,13.08,4.42,22.59,12.89,28.55,25.36.45.94.64,2.05,1.56,2.73,2.67,10.71,4.17,21.5,2.51,32.54-2.2,12.29-7.82,22.57-17.75,30.34-6.73,5.27-14.42,8.51-22.52,10.98-1.59.48-3.99-.08-3.94,2.87.04,2.87,2.49,2.37,4.02,2.9,8.11,2.81,15.26,6.99,20.74,13.74.74.91,1.34,2.05,2.72,2.17-.62,1.9.96,2.93,1.76,4.2,7.99,12.75,10.1,27.01,10.88,41.63.94,11.33.59,22.76,2.43,34.02.37,2.23.9,4.47,1.67,6.6,2.7,7.48,7.73,10.06,15.49,8.09,1.42-.36,2.89-.7,4.2-1.33,2.08-1,3.24-.8,4.24,1.59,1.19,2.84-.73,3.18-2.42,3.78-13.2,4.72-26.55,4.83-39.72.3-9.86-3.39-15.98-10.85-19.52-20.52-2.51-6.86-3.18-14.06-4.06-21.23-.16-1.32-.39-2.63-.6-3.95-.6-10.37-1.28-20.73-2.81-31.01-.94-6.3-1.98-12.65-5.77-18.07.12-1.49-.91-2.47-1.64-3.55-4.34-6.42-10.23-10.81-17.58-13.24-9.55-3.16-19.45-3.05-29.33-3.27-1.71-.04-1.97.81-1.96,2.22.04,5.08.05,10.15,0,15.23-.01,1.24.47,2.01,1.52,2.53-2.11.8-1.43,2.65-1.44,4.12-.04,15.35-.03,30.7-.03,46.05ZM1036.1,375.17c0,15.52.1,31.05-.08,46.57-.04,3.28.98,4.03,4.03,3.89,5.87-.27,11.74,0,17.61-.87,20.77-3.1,35.48-16.5,39.38-36.33,1.7-8.62,1.43-17.32.19-25.97-2.87-20.09-14.74-32.31-34.53-35.89-7.69-1.39-15.42-1.44-23.18-1.56-2.89-.05-3.51.88-3.49,3.61.13,15.52.06,31.05.06,46.57Z"/>
  <path class="cls-2" d="M997.88,429.09c.77,1.75.76,3.59.76,5.46-.01,19.16,0,38.32,0,57.49-8-3.14-15.43-7.27-22.19-12.6-11.26-8.88-18.8-20.24-22.85-33.99-5.13-17.44-8.75-35.21-11.65-53.12-.19-2.78-1.08-5.46-1.06-8.3.09-10.56-.07-21.12.09-31.68.08-5.6.11-11.23,1.2-16.77,1.32-6.73,4.32-9.45,11.09-9.85,4.13-.24,8.28-.44,12.41-.42,2.28.01,2.98-.8,3-3.04.03-2.93-1.79-2.74-3.74-2.74-14.04.01-28.07.05-42.11-.02-5.07-.02-10.15.35-15.21-.26.56-21.97-.32-43.9-1.88-65.8-1.62-22.69-3.31-45.38-5.31-68.04-2.35-26.66-5.01-53.28-7.65-79.91-2.44-24.63-5.02-49.25-7.53-73.87-1-9.85-2-19.7-2.96-29.55-.07-.71-.59-1.86.16-2.05.68-.17.89,1.08,1.2,1.78,18.08,40.77,32.71,82.67,43.44,126.02,13.43,54.26,25.02,108.91,36.88,163.51,9.08,41.8,17.92,83.65,29.62,124.83,1.24,4.36,2.83,8.63,4.26,12.94Z"/>
  <path class="cls-2" d="M1137.56,384.05c1.66-11.04.16-21.84-2.51-32.54,1.18-5.8,3.42-11.22,5.78-16.61,5.62-12.85,11.08-25.76,16.82-38.56,3.95-8.8,8.74-17.14,14.82-24.69,4.65-5.78,10-10.78,16.47-14.49,16.54-9.48,35.62-7.35,49.69,5.55,7.45,6.83,12.42,15.31,16.22,24.56,3.72,9.07,6.08,18.51,7.64,28.17-.63.58-1.42.87-2.21.72-3.51-.68-4.51,1.31-5.33,4.26-2.31,8.35-4.9,16.62-7.41,24.92-5.84,19.26-11.7,38.51-17.55,57.76-4.01,4.42-7.02,9.59-10.55,14.36-4.44,6-4.38,6.05,3.02,7.31,1.24,1.03.53,2.21.2,3.31-4.22,14.09-8.45,28.16-12.69,42.24-9.08-2.14-18.22-4.13-26.44-8.81-1.94-1.1-2.68.33-3.67,1.21-8.83,7.78-18.23,14.81-28.15,21.14-5.75,3.67-11.71,6.9-18.24,9-.78-14.62-2.89-28.88-10.88-41.63-.8-1.27-2.38-2.3-1.76-4.2,11.22-4.58,20.94-11.66,30.9-18.38,1.7-1.15,1.9-2.04.97-3.86-4.45-8.69-7.8-17.83-10.8-27.11-1.46-4.54-2.36-9.27-4.34-13.65ZM1154.09,357.87c.04,7.15,2.12,13.53,6.59,20.54,6.12,9.6,14.37,17.23,22.81,24.7,1.48,1.31,2.4.92,3.72-.07,11.37-8.5,22.56-17.23,32.68-27.23,7.34-7.26,14.18-14.91,19.88-23.6,3.56-5.43,3.92-10.72,1.64-16.65-5.85-15.19-16.5-26.37-29.25-35.9-1.91-1.43-3.55-1.13-5.51-.07-11.53,6.29-21.24,14.89-30.45,24.08-7.59,7.57-14.64,15.63-19.66,25.25-1.58,3.03-2.71,6.11-2.45,8.94Z"/>
  <path class="cls-3" d="M907.63,319.24c5.06.62,10.14.24,15.21.26,14.04.06,28.07.03,42.11.02,1.94,0,3.76-.19,3.74,2.74-.02,2.24-.72,3.05-3,3.04-4.14-.02-8.28.17-12.41.42-6.77.4-9.78,3.12-11.09,9.85-1.09,5.54-1.11,11.17-1.2,16.77-.16,10.56,0,21.12-.09,31.68-.03,2.85.86,5.52,1.06,8.3-1.15,1.82-.88,3.86-.89,5.85-.19,27.42.43,54.84-.36,82.25-.26,9.11-1.72,18.08-4.1,26.9-6.08,22.5-20.51,36.72-43.2,41.51-24.15,5.11-48.11,3.36-71.41-5.16-6.71-2.45-12.65-6.27-18.18-10.8-11.24-9.19-16.09-21.31-16.61-35.49-.05-15.45-.09-30.9-.17-46.35,0-1.57.4-3.21-.52-4.69.62-1.4.48-2.88.48-4.35,0-37.61,0-75.22,0-112.83,0-4.09-.01-4.1-4.1-4.11-4.82,0-9.64-.1-14.45.04-2.24.07-2.99-.6-2.98-2.9.01-2.27.71-2.95,2.97-2.94,13.65.09,27.3.04,40.95.04,12.85,0,25.7.03,38.55-.03,2.26-.01,3.85.04,3.62,3.1-.16,2.05-.65,2.77-2.75,2.72-5.22-.13-10.44.07-15.66-.09-2.46-.07-3.47.41-3.46,3.22.11,28.24.06,56.48.1,84.72,0,1.04-.66,2.48,1.02,3.02-1.33,1.43-1.05,3.2-1.05,4.91,0,16,0,31.99,0,47.99-.09,8.03.13,16.05.9,24.05.96,10.03,2.6,19.9,7.27,28.99,5.42,10.55,13.69,17.64,25.32,20.54,5.5,1.37,11.11,1.51,16.74,1.3,23.75-.91,39.25-12.32,47.23-34.79,4.12-11.59,6.01-23.65,6.1-35.83.28-36.12.13-72.24.15-108.36-.02-6.66.04-13.32-.08-19.98-.08-4-.65-7.96-1.97-11.78-1.76-5.11-5.3-7.91-10.73-7.99-4.39-.07-8.79.09-13.19.15-.4-.05-.8-.15-1.19-.13-2.09.12-3.66.25-3.69-2.91-.03-3.39,1.9-2.79,3.82-2.84.4-.01.8-.03,1.2-.05Z"/>
  <path class="cls-4" d="M589.06,388.01c-2.61,0-3.79-.69-3.69-3.89.68-20.44,1.11-40.9,1.49-61.35.05-2.76.87-3.58,3.64-3.52,7.48.14,14.97-.04,22.45-.09,6.6.68,13.21.49,19.81.1,38.95.02,77.91.04,116.86.05,1.07,0,2.15.07,3.21-.01,1.8-.15,2.32.72,2.26,2.39-.07,2.14.03,4.28.06,6.42.26,18.74.52,37.48.8,56.22.03,1.92.36,3.63-2.69,3.53-2.51-.08-2.76-1.15-2.77-3.17-.02-8.71-.34-17.4-1.86-26-.54-3.02-1.21-6.03-2.06-8.98-3.88-13.36-12.91-20.88-26.55-22.89-8.48-1.25-17.03-1.67-25.61-1.82-2.83-.05-3.23,1.03-3.23,3.47.05,53.95.04,107.89.08,161.84,0,1.26-.91,3.12,1.4,3.57-1.83,1.08-1.59,2.88-1.59,4.6,0,12.8,0,25.59,0,38.39,0,4.42.51,4.87,4.78,4.22.64-.1,1.26-.37,1.89-.55,4.52.54,9.07.34,13.59.26,2.29-.04,2.95.74,2.95,2.98,0,2.23-.63,2.99-2.94,2.98-12.29-.07-24.58.03-36.88.07-1.99.02-3.98.06-5.97.06-12.45,0-24.91.01-37.36,0-1.91,0-4.02.63-4.08-2.72-.07-3.58,2.18-2.96,4.25-2.97,5.22-.02,10.44,0,15.67,0,4.23,0,4.25-.02,4.26-4.1.01-8.57,0-17.14,0-25.71q0-5.37-5.09-5.67,5.05-1.19,5.05-6.88c0-56.18,0-112.35,0-168.53,0-.94-.06-1.88.01-2.81.12-1.62-.35-2.5-2.2-2.43-5.87.23-11.78-.41-17.58.98-2.11.25-4.24.41-6.33.77-6.61,1.11-13.01,2.79-18.36,7.14-5.15,2.95-7.88,7.82-9.99,13.04-3.95,9.78-4.93,20.1-4.96,30.54-.16,2.59-.39,5.18-.45,7.77-.04,1.63-.26,2.89-2.3,2.74Z"/>
  <path class="cls-12" d="M257,546.7c-12.45,0-24.9-.09-37.34.07-2.8.04-3.4-.96-3.31-3.46.07-1.92.71-2.54,2.61-2.51,5.62.09,11.25-.08,16.86.08,2.81.08,3.1-.9,2.33-3.33-6.68-20.88-13.3-41.79-19.87-62.71-.63-2-1.65-2.63-3.72-2.63-17.8.08-35.6.08-53.41,0-2.12,0-3.07.75-3.72,2.67-5.74,17.12-10.85,34.43-15.11,51.98-1.7,6.99.32,10.12,7.29,12.32,5.44,1.72,11.08,1.73,16.7,1.6,2.32-.06,3.29.43,3.31,3.05.03,2.83-1.34,2.9-3.46,2.89-17.8-.05-35.6-.03-53.41-.02-1.81,0-3.38.22-3.41-2.53-.03-2.6.73-3.68,3.38-3.49,1.45.11,2.93-.18,4.4-.25,8.82-.42,14.66-4.61,17.78-13.07,4.54-12.32,7.95-24.96,11.72-37.51,17.02-56.73,34-113.47,50.9-170.23.86-2.9,2.09-4,5.22-3.9,7.58.23,7.58.06,9.93,7.36,22.85,71.16,45.72,142.31,68.47,213.5,1.03,3.21,2.34,4.74,5.83,4.29,2.24-.29,4.54-.04,6.82-.06,2.02-.02,3.91-.41,3.9,2.88-.01,3.08-1.56,3.04-3.75,3.03-12.31-.05-24.63-.02-36.94-.02ZM187.97,466.48c8.16,0,16.33-.1,24.49.05,2.69.05,3.14-.6,2.32-3.15-8.85-27.49-17.59-55.01-26.41-82.51-.25-.77-.08-2.14-1.13-2.17-.78-.02-.84,1.21-1.07,1.97-8.4,27.63-16.78,55.26-25.25,82.87-.71,2.31-.41,3.03,2.14,2.99,8.3-.13,16.6-.05,24.89-.05Z"/>
  <path class="cls-11" d="M1229.99,403.1c5.85-19.25,11.71-38.5,17.55-57.76,2.51-8.29,5.1-16.57,7.41-24.92.82-2.95,1.82-4.95,5.33-4.26.79.15,1.58-.14,2.21-.72,4.88-.48,6.19,2.57,7.46,6.61,10.36,32.81,20.95,65.55,31.49,98.3.48,1.5.63,3.17,1.92,4.32-.63,1.7.35,3.14.84,4.61,4.39,13.29,8.22,26.77,13.07,39.91,6.09,19.1,12.17,38.19,18.26,57.29,1.22,3.82,2.56,7.6,3.64,11.46.6,2.16,1.64,3.1,3.95,2.93,2.53-.19,5.08-.1,7.62-.02,2.07.06,4.58-.93,4.51,3.03-.07,3.72-2.4,2.79-4.33,2.8-20.07.04-40.14.02-60.21.02-4.68,0-9.37-.14-14.05.05-2.6.1-2.67-1.23-2.73-3.18-.07-2.1.59-2.82,2.73-2.78,5.62.12,11.24-.03,16.86.07,2.29.04,3.1-.4,2.29-2.92-6.94-21.49-13.79-43-20.66-64.51-1.42-1.06-3.08-.65-4.63-.65-12.74-.02-25.49.01-38.23.03-4.53-.18-9.05-.7-13.6-.62-2.09.04-3.06.72-3.72,2.69-5.76,17.25-10.95,34.66-15.17,52.35-1.55,6.5.21,9.36,6.54,11.66,5.65,2.05,11.56,1.99,17.44,1.91,2.17-.03,3.47.16,3.43,2.94-.03,2.63-1.07,3.02-3.37,3.01-17.79-.08-35.59-.06-53.38-.02-2.07,0-3.52.01-3.49-2.86.03-2.57.94-3.27,3.27-3.16,1.59.07,3.2-.19,4.8-.28,8.46-.51,14.18-4.51,17.23-12.64,4.66-12.41,8-25.21,11.87-37.86,1.99-6.52,3.9-13.06,5.84-19.59,4.23-14.08,8.47-28.16,12.69-42.24.33-1.1,1.04-2.28-.2-3.31,1.34-.19,1.53-1.28,1.83-2.29,1.9-6.46,3.8-12.92,5.7-19.38ZM1245.54,380.32c-.54-.21,0-2.53-1.33-.87-.83,1.03-.9,2.67-1.31,4.04-3.72,12.11-7.44,24.21-11.16,36.32q-1.58,5.16,3.4,6.34c-2.06.78-4.99-1.26-6.1,2.69-3.25,11.57-6.84,23.06-10.47,34.52-.92,2.89-.01,3.37,2.64,3.36,16.18-.08,32.36-.1,48.54.02,2.99.02,3.28-.88,2.43-3.46-3.59-10.92-7.09-21.86-10.46-32.85-.75-2.43-1.82-3.33-4.45-3.33-5.72,0-11.49.63-17.16-.73,5.88.04,11.75.04,17.63.13,1.77.03,2.77-.09,2.02-2.39-4.8-14.58-9.49-29.2-14.21-43.8Z"/>
  <path class="cls-6" d="M385.67,546.87c-24.54,0-49.09,0-73.63.01-1.73,0-3.46.11-5.19.17-2.07-.63-5.39.54-4.77-3.81.27-1.93.9-2.4,2.68-2.45,3.02-.08,6.11.59,9.07-.59,2.86,1.97,6.22,1.4,8.95.53,1.91-.62.68-3.78.84-5.79.11-1.42.26-2.9-.42-4.26.65-1.54.43-3.17.43-4.76,0-65.46.01-130.93,0-196.39,0-5.02.59-4.41-4.53-4.44-4.69-.03-9.37-.12-14.06.04-2.32.08-2.91-.74-2.94-2.97-.03-2.39.89-2.88,3.06-2.87,18.34.07,36.68.04,55.02.04,7.5,0,14.99.06,22.49-.04,2.09-.03,3.07.34,3.11,2.79.04,2.59-.86,3.12-3.24,3.06-5.62-.16-11.25.15-16.86-.13-3.12-.16-3.71.89-3.7,3.81.11,33.07.07,66.13.07,99.2,0,19.55-.03,39.09.06,58.64,0,1.39-1.02,3.24,1.03,4.2-.58,1.04-1.1,2.04-1.1,3.34.05,14.73.06,29.46,0,44.19,0,2.04.66,2.86,2.77,2.83,9.37-.13,18.74-.15,28.11-.21,11.21-.26,22.41-.25,33.6-1.35,15.75-1.55,26.69-9.2,32.05-24.31.67-1.88,1.24-3.8,1.79-5.73,2.59-9.06,2.96-18.42,3.73-27.72.04-2.53.17-5.07.08-7.59-.08-2.11.83-2.78,2.84-2.81,2.17-.03,2.72,1,2.71,2.95-.02,2.25-.3,4.53.26,6.77-.11,1.59-.3,3.19-.3,4.78-.02,18.86-.01,37.72-.02,56.59,0,4.13-.02,4.15-4.11,4.15-24.88,0-49.76,0-74.65,0-1.74,0-3.47.1-5.21.16Z"/>
  <path class="cls-10" d="M392.91,540.98c-9.37.06-18.74.08-28.11.21-2.11.03-2.78-.79-2.77-2.83.05-14.73.05-29.46,0-44.19,0-1.3.51-2.3,1.1-3.34,16.24-15.96,32.91-31.46,50.64-45.76,7.21-5.81,14.74-11.14,23.14-15.11,22.59-10.68,44.8-9.44,66.63,2.28,1.53.82,3.03,1.7,4.55,2.55.08,1.6.23,3.2.23,4.8.01,27.56.01,55.13,0,82.69,0,1.6-.13,3.2-.2,4.81-3.88-7.15-7.37-14.5-11.8-21.34-4.59-7.09-9.71-13.73-16.21-19.2-3-2.52-6.22-4.59-10.14-5.37-.56-2.24-.28-4.51-.26-6.77.02-1.95-.53-2.97-2.71-2.95-2.01.02-2.92.7-2.84,2.81.09,2.53-.04,5.06-.08,7.59-4.21.8-7.55,3.31-10.85,5.78-21.15,15.81-40.04,34.2-59.44,52.01-.38.35-.59.88-.88,1.33Z"/>
  <path class="cls-4" d="M508.11,527.09c.07-1.6.2-3.2.2-4.81.01-27.56.01-55.13,0-82.69,0-1.6-.15-3.2-.23-4.8.07-1.33.21-2.66.21-3.99.01-33.85.01-67.7,0-101.55,0-4.17-.01-4.17-4.01-4.18-4.82,0-9.64-.08-14.45.04-2.1.05-3.16-.33-3.09-2.79.06-2.14.49-3.05,2.87-3.04,26.36.07,52.72.08,79.08,0,2.62,0,2.62,1.26,2.69,3.19.08,2.17-.76,2.69-2.79,2.66-6.15-.11-12.31.05-18.46-.09-2.32-.05-3.24.41-3.23,3.04.08,48.7.06,97.41.08,146.11,0,.92.23,1.85.35,2.77-.53,1.55-.38,3.16-.38,4.75,0,12.1,0,24.21,0,36.31,0,6.28.17,12.57-.05,18.85-.1,3.05.64,4.24,3.92,4.09,5.87-.27,11.77.02,17.65-.12,2.32-.05,2.91.8,2.93,3,.02,2.31-.79,2.93-3.02,2.92-26.21-.06-52.41-.06-78.62,0-2.23,0-3.02-.62-3.01-2.93.01-2.25.69-3.05,2.97-2.99,5.21.13,10.43-.04,15.64.08,2.25.05,3.1-.69,2.97-2.98-.21-3.6-.16-7.21-.23-10.82Z"/>
  <path class="cls-2" d="M606.76,333.92c5.35-4.35,11.75-6.03,18.36-7.14,2.09-.35,4.22-.52,6.33-.77-2.43,20.15-5.55,40.21-7.69,60.41-2.51,23.67-4.46,47.37-3.53,71.2.46,11.9,1.4,23.83,5.57,35.09,4.59,12.38,5.95,12.53,17.97,13,.8.03,1.6-.01,2.4-.02q5.09.3,5.09,5.67c0,8.57.01,17.14,0,25.71,0,4.08-.03,4.09-4.26,4.1-5.22.01-10.44,0-15.67,0-2.07,0-4.32-.61-4.25,2.97.07,3.35,2.18,2.72,4.08,2.72,12.45.02,24.91.01,37.36,0,1.99,0,3.98-.04,5.97-.06-12.13,3.67-24.56,4.91-37.18,4.38-5.49-.23-10.88-1.09-16.18-2.62-10.78-3.11-19.52-9.08-26.24-18.08-10.16-13.6-14.77-29.21-16.56-45.79-3.09-28.58,1.19-56.52,7.63-84.25.97-4.16,2.07-8.29,3.1-12.44,2.04.16,2.27-1.1,2.3-2.73.06-2.59.29-5.18.45-7.77,4.77-14.6,9.51-29.21,14.95-43.58Z"/>
  <path class="cls-2" d="M1317.26,469.19c-4.85-13.14-8.68-26.62-13.07-39.91-.49-1.47-1.47-2.91-.84-4.61,20.24-2.3,40.24-5.75,59.68-12,3.7-1.19,7.21-2.81,10.78-4.31,4.28-1.8,5.89-4.91,5.89-9.41,0-9.98-1.44-19.74-4-29.35-5.25-19.7-12.75-38.57-21.36-57.01-1.33-2.85-1.5-4.16,1.84-5.52,6.18-2.51,12.14-5.57,18.16-8.48,1.52-.74,2.47-.88,3.61.79,16.76,24.54,31.3,50.16,38.68,79.26,2.86,11.26,4.1,22.68,1.96,34.21-2.42,13.06-9.3,23.2-20.58,30.27-14.78,9.27-31.03,14.9-47.76,19.33-10.87,2.87-21.89,5.01-33,6.74Z"/>
  <path class="cls-2" d="M907.49,325.17c4.4-.06,8.79-.21,13.19-.15,5.43.08,8.97,2.89,10.73,7.99,1.32,3.82,1.89,7.78,1.97,11.78.13,6.66.07,13.32.08,19.98-.97.41-1.17,1.4-1.6,2.19-4.59,8.48-9.94,16.45-15.97,23.96-24.55,30.59-54.61,55.08-86.14,77.96,0-16,0-31.99,0-47.99,0-1.71-.27-3.48,1.05-4.91,15.36-11.66,30.2-23.93,43.73-37.7,10.63-10.81,20.42-22.28,27.87-35.59,3.06-5.47,5.03-11.2,5.09-17.51Z"/>
  <path class="cls-13" d="M1264.11,157.55c-.33.37-.67.79-1.04,1.16-9.93,9.94-19.91,19.84-29.76,29.85-1.89,1.93-2.68.45-3.76-.64-8.05-8.04-16.17-16-24.07-24.18-2.1-2.17-3.17-2.14-5.25.01-7.9,8.18-16.08,16.09-24.03,24.23-1.68,1.73-2.57,1.84-4.33.05-11.65-11.82-23.4-23.53-35.18-35.21-1.41-1.4-1.69-2.23-.11-3.78,9.82-9.68,19.56-19.42,29.23-29.25,1.66-1.69,2.49-1.04,3.79.27,8.1,8.18,16.32,16.23,24.34,24.48,1.9,1.96,2.91,2.17,4.93.08,7.9-8.18,16.08-16.09,24.03-24.23,1.8-1.84,2.78-2.01,4.69-.07,11.45,11.64,23.05,23.13,34.58,34.69.74.74,1.7,1.34,1.96,2.55Z"/>
  <path class="cls-13" d="M1379.44,270.53c-.68-.65-1.46-1.37-2.21-2.12-7.95-7.95-15.97-15.83-23.8-23.9-1.91-1.97-2.92-2.14-4.93-.06-7.91,8.18-16.08,16.09-24.03,24.24-1.8,1.84-2.79,1.98-4.68.06-11.45-11.64-23.01-23.18-34.63-34.65-1.82-1.8-1.99-2.77-.05-4.66,9.57-9.36,19.03-18.83,28.39-28.39,1.78-1.82,2.67-1.68,4.36.05,8.05,8.23,16.3,16.26,24.34,24.5,1.84,1.88,2.81,1.85,4.64-.02,8.03-8.24,16.29-16.27,24.34-24.49,1.68-1.72,2.55-1.85,4.32-.05,11.65,11.82,23.41,23.54,35.2,35.22,1.42,1.41,1.69,2.23.11,3.78-9.82,9.68-19.52,19.47-29.28,29.21-.54.54-.98,1.29-2.08,1.3Z"/>
  <path class="cls-10" d="M511.94,704.89c-.9.84-1.69,1.55-2.44,2.3-7.96,7.95-15.96,15.84-23.81,23.89-1.82,1.87-2.82,2.36-4.94.19-11.42-11.67-23.01-23.18-34.61-34.68-1.57-1.55-2.18-2.43-.22-4.34,9.68-9.44,19.24-19,28.68-28.68,1.84-1.89,2.71-1.5,4.32.13,7.97,8.12,16.15,16.03,24.03,24.24,2.2,2.29,3.28,1.94,5.28-.12,7.83-8.07,15.89-15.91,23.77-23.94,1.66-1.69,2.62-2.25,4.63-.2,11.53,11.76,23.18,23.39,34.92,34.94,1.82,1.79,1.62,2.66-.07,4.32-9.64,9.48-19.2,19.04-28.67,28.69-1.67,1.7-2.55,1.45-4.07-.1-8.07-8.21-16.25-16.32-24.39-24.45-.74-.74-1.54-1.41-2.41-2.19Z"/>
  <path class="cls-10" d="M697.78,540.53c-.63.19-1.25.46-1.89.55-4.28.65-4.78.2-4.78-4.22,0-12.8,0-25.59,0-38.39,0-1.72-.25-3.51,1.59-4.6,31.64-12.18,61.5-27.9,90.39-45.54,1.13-.69,2.3-1.33,3.45-1.99.91,1.48.5,3.12.51,4.69.08,15.45.12,30.9.17,46.35-1.62.32-2.89,1.36-4.25,2.16-26.68,15.69-54.12,29.8-83.36,40.18-.62.22-1.21.53-1.82.8Z"/>
  <path class="cls-1" d="M1086.59,451.14c3.79,5.42,4.84,11.78,5.77,18.07,1.53,10.27,2.2,20.64,2.81,31.01-17.38,2.07-34.79,3.18-52.28,1.63-2.26-.2-4.51-.42-6.77-.63,0-15.35-.02-30.7.03-46.05,0-1.48-.68-3.33,1.43-4.13,9.7.83,19.43,1.08,29.17.97,6.51.33,13,.33,19.45-.83l.39-.05Z"/>
  <path class="cls-5" d="M632.77,319.26c-6.61.38-13.21.57-19.81-.1,4.35-10.19,9.12-20.18,14.36-29.94.88-1.64,1.67-3.26,3.83-1.85,1.9,1.24,5.77.02,5.13,4.48-1.31,9.12-2.36,18.27-3.51,27.41Z"/>
  <path class="cls-5" d="M546.95,518c0-12.1,0-24.21,0-36.31,0-1.59-.14-3.2.38-4.75,5.31,7.9,9.46,16.44,13.62,24.97,1.23,2.52.68,4.67-1.19,6.58-3.76,3.85-7.99,7.09-12.82,9.51Z"/>
  <path class="cls-5" d="M323.19,530.67c.68,1.36.54,2.85.42,4.26-.16,2.01,1.07,5.17-.84,5.79-2.72.88-6.08,1.44-8.95-.53,3.12-3.18,6.24-6.35,9.36-9.53Z"/>
  <path class="cls-9" d="M1232.28,472.81c12.74-.02,25.49-.05,38.23-.03,1.55,0,3.21-.41,4.63.65-14.3.51-28.59.95-42.86-.62Z"/>
  <path class="cls-8" d="M1229.99,403.1c-1.9,6.46-3.8,12.92-5.7,19.38-.3,1.02-.49,2.11-1.83,2.29-7.4-1.26-7.46-1.3-3.02-7.31,3.53-4.78,6.54-9.94,10.55-14.36Z"/>
  <path class="cls-8" d="M606.76,333.92c-5.44,14.37-10.18,28.98-14.95,43.58.02-10.45,1.01-20.76,4.96-30.55,2.11-5.21,4.84-10.09,9.99-13.04Z"/>
  <path class="cls-7" d="M1240.1,426.38c5.67,1.36,11.44.72,17.16.73,2.63,0,3.71.9,4.45,3.33,3.37,10.98,6.88,21.93,10.46,32.85.85,2.57.56,3.48-2.43,3.46-16.18-.12-32.36-.1-48.54-.02-2.65.01-3.55-.47-2.64-3.36,3.63-11.46,7.21-22.95,10.47-34.52,1.11-3.95,4.04-1.91,6.1-2.69,1.65.08,3.31.15,4.96.23Z"/>
  <path class="cls-9" d="M1245.54,380.32c-.88,1.06-1.76,2.11-2.64,3.17.41-1.37.48-3.01,1.31-4.04,1.33-1.66.8.66,1.33.87Z"/>
  <path class="cls-12" d="M1066.75,452.02c6.48-.42,12.94-1,19.45-.83-6.44,1.16-12.94,1.15-19.45.83Z"/>
</svg>