<?xml version="1.0" encoding="UTF-8"?>
<svg id="Layer_1" xmlns="http://www.w3.org/2000/svg" viewBox="0 0 2537.39 1440.16">
  <g>
    <path d="M2209.1,273.15c-.57.64-1.15,1.36-1.8,2.02-17.18,17.2-34.45,34.33-51.5,51.67-3.28,3.33-4.63.77-6.51-1.1-13.93-13.91-27.99-27.69-41.66-41.85-3.63-3.76-5.48-3.7-9.08.02-13.68,14.15-27.83,27.85-41.58,41.93-2.92,2.99-4.45,3.18-7.5.08-20.15-20.46-40.5-40.72-60.89-60.94-2.45-2.43-2.92-3.86-.19-6.55,16.99-16.74,33.86-33.61,50.58-50.62,2.88-2.93,4.31-1.79,6.56.47,14.01,14.15,28.25,28.09,42.13,42.37,3.29,3.39,5.04,3.75,8.53.14,13.68-14.15,27.84-27.84,41.58-41.93,3.11-3.19,4.81-3.48,8.11-.13,19.81,20.14,39.88,40.03,59.84,60.03,1.28,1.28,2.94,2.32,3.39,4.41Z" style="fill: #030202;"/>
    <path d="M2408.69,468.69c-1.17-1.12-2.53-2.37-3.83-3.66-13.76-13.76-27.64-27.4-41.19-41.36-3.31-3.41-5.05-3.7-8.52-.11-13.68,14.15-27.83,27.85-41.58,41.95-3.11,3.19-4.83,3.43-8.11.11-19.82-20.14-39.82-40.12-59.93-59.96-3.15-3.11-3.44-4.8-.09-8.07,16.56-16.19,32.93-32.58,49.13-49.14,3.08-3.15,4.63-2.9,7.54.08,13.93,14.24,28.21,28.13,42.12,42.39,3.18,3.26,4.87,3.21,8.03-.04,13.9-14.26,28.19-28.15,42.12-42.39,2.91-2.97,4.41-3.19,7.47-.09,20.16,20.46,40.51,40.73,60.91,60.95,2.46,2.44,2.92,3.85.2,6.54-16.99,16.75-33.79,33.69-50.67,50.55-.94.94-1.69,2.24-3.59,2.25Z" style="fill: #030202;"/>
    <g>
      <path d="M937.93,1220.4c-1.55,1.46-2.92,2.68-4.22,3.98-13.77,13.75-27.62,27.42-41.21,41.35-3.15,3.23-4.87,4.08-8.54.33-19.77-20.2-39.82-40.12-59.9-60.01-2.71-2.69-3.77-4.2-.37-7.51,16.75-16.33,33.29-32.89,49.64-49.63,3.19-3.27,4.7-2.6,7.48.23,13.79,14.06,27.95,27.75,41.59,41.95,3.8,3.96,5.68,3.36,9.14-.2,13.55-13.96,27.5-27.54,41.13-41.43,2.87-2.93,4.53-3.9,8.01-.35,19.95,20.35,40.12,40.48,60.43,60.46,3.16,3.11,2.8,4.61-.12,7.48-16.68,16.41-33.23,32.95-49.62,49.64-2.89,2.95-4.41,2.5-7.04-.17-13.97-14.21-28.12-28.24-42.22-42.31-1.28-1.27-2.66-2.43-4.17-3.8Z" style="fill: #020101;"/>
      <path d="M937,894.56c-12.76-27.61-33.83-61.88-61.8-75.01-26.12-11.63-49.42,9.54-67.31,27.58-95.25,99.13-196.61,209.14-292.05,307.72-20.84,21.12-43.73,43.98-64.97,64.61-24.45,24.37-51.42,50.94-76.3,74.72-10.99,10.08-28.58,26.32-39.59,36.19-48.56,43.35-101.5,87.68-166.34,104.62-89.82,22.53-159.83-30.68-167.71-121.02-5.74-67.53,15.96-139.7,39.35-202.02,18.92-49.58,42.06-97.62,68.03-143.84,17.27-30.59,35.73-60.44,56.54-89.13,0,0,18.19,7.17,18.19,7.17-42.79,111.3-86.02,223.97-105.42,342.11-5.15,37.64-13.48,109.86,26.81,130.15,27.15,12.3,60.02-2.08,84.29-15.39,40.71-23.07,75.18-55.52,109.43-87.08,154.18-148.04,301.79-309.59,449.46-466.69,6.39-6.8,13.77-14.06,21.76-21.02,17.34-14.98,37.8-27.66,61.22-33.91,62.98-16.78,118.12,18.87,159.12,63.53,13.93,15.06,26.34,30.67,38.36,46.36,0,0-91.08,50.35-91.08,50.35h0Z"/>
      <path d="M2458.03,527.36c34.76,38.52,55.89,86.49,70.24,135.77,5.5,18.92,9.99,38.3,8.97,60.28-1.67,36.79-20.77,70.47-52.64,89.53-19.11,11.76-40.87,18.66-62.42,24.28-26.01,6.44-52.9,10.87-79.46,13.87-52.72,5.65-106.3,10.75-158.33-7.75-8.97-3.09-17.85-7.57-25.78-12.63-48.11-30.57-85.83-78.78-100.16-134.12-6.87-27.63-7.26-54.47-4.9-81.88,1.92-26.27,8.49-52.05,19.18-76.16,18.49-42.73,59.77-95.33,110.47-63.65,29.57,18.65,50.21,50.24,62.18,82.68,14.24,41.75,13.39,86.35-4.33,126.86-11.23,25.95-28.78,48.21-46.88,69.4-24.94,29.04-50.63,57.59-79.77,82.67-31.04,27.01-68.9,49.65-110.4,55.43-21.15,2.92-41.79,2.73-62.89,2.42-27.69-.9-54.99-4.81-82.34-8.8-13.69-2.03-27.29-4.39-41.36-7.57-37.36-7.46-62.57-23.69-83.47-55.87-23.74-37.34-33.84-78.8-43.37-120.73-25.86-128.7-38.49-261.58-59.78-390.8-13.26-83.68-29.49-167.85-46.81-250.81-1.32-6.42-2.87-12.79-4.04-19.25-2.42-12.91-2.22-26.57-4.03-39.71,0,0,2.12-.6,2.12-.6,2.12,14.82,9.47,37.51,13.18,52.42,33.93,130.74,71.93,261.36,91.55,395.33,3.72,26.09,5.84,55.24,9.31,80.91,1.27,10.1,4.35,31.51,5.21,41.24,1.23,9.52,1.02,18.87,2.9,28.42,1.18,4.93,3.18,10.32,5.15,15.1,4.3,10.16,7.95,20.94,7.12,32.04-.91,21.15-4.68,43.02-12.15,64.12-1.62,4.82-4.41,11.85-6.67,16.43-14.25,28.7-34.04,52.66-55.41,75.59-29.35,31.2-61.34,60.33-96.93,85.55-49.14,35.29-103.89,62.57-160.69,83.05-28.45,10.25-57.62,19.14-87.31,25.11-68.19,14.12-147.86,11.05-204.27-35.79-27.4-22.59-46.74-55.04-52.42-90.13-5.31-29.48-1.57-60.01,2.51-88.64,7.85-57.19,18.14-115.21,37.7-169.55,12.48-35.61,28.18-70.42,45.67-103.71,0,0,21.82,10.24,21.82,10.24-17.3,50.84-31.58,102.55-39.26,155.68-5.13,35.14-7.36,70.75-8.61,106.23-1.11,37.08-5.2,78.54,18.18,110.05,4.02,5.33,8.78,10.45,13.86,14.68.75.59,3.09,2.67,3.86,3.28,0,0,1.39.96,1.39.96,0,0,5.55,3.84,5.55,3.84,3.66,2.19,7.87,4.76,11.81,6.52,63.03,29.59,146.63,9.37,209.47-12.76,69.88-24.45,125.07-60.38,177.53-112.25,24.65-24.47,50.54-50.2,72.57-76.88,10.32-12.8,19.88-25.57,26.49-40.39,8.82-18.01,14.04-37.54,18.4-57.16,3.36-11.88,6.54-24.23,6.35-36.72.47-16.83-1.05-33.77-3.37-51.33-3.47-27.52-6.95-52.53-10.8-79.31-4.1-30.69-7.75-61.88-11.19-92.67-13.76-116.05-23.66-233.3-56-346.17-1.34-4.3-3.14-8.48-5.32-12.53,0,0,3.53-1,3.53-1,3.25,5.9,7.34,11.58,11.24,17.32,3.96,5.73,7.41,11.61,10.05,17.72,2.18,4.99,4.82,13.41,6.71,18.67,45.12,131.43,71.43,268.4,107.48,402.42,11.09,43.37,22.66,90.35,33.01,133.73,10.1,42.84,20.62,85.83,32.39,127.39,5.8,20.04,12.39,41.74,21.75,58.68,4.09,7.38,7.53,12.76,10.58,17.26,1.63,2.2,3.2,4.25,5.47,6.21,13.52,8.2,32.56,13.36,49.06,16.55,24.55,5.28,50.05,2.07,74.8.79,16.12-.86,47.28-.98,62.86-3.02,13.04-1.6,25.32-5.44,38.14-10.7,47.49-19.83,86.09-55.37,124.12-89.29,22.66-20.73,43.1-49.14,40.69-81.17-1.55-18.51-11.54-35.19-19.4-51.3-1.67-3.87-4.24-7.99-6.41-11.65-7.64-12.36-17.48-24.96-28.46-34.1-2.49-2.13-4.91-3.63-6.38-4.39-1.45-.72-2.17-.66-.83-.11,2.25.7,4.92.99,7.28.57.39,0,.74,0,1.11-.09.21-.02.54-.23.6-.16.23.03.45-.02.63-.16-11.49,9.29-18.95,20.88-26.73,34.51-14.63,26.1-25.05,55.98-25.95,86.03-1.77,51.6,40.47,95.07,85.68,114.98,26.76,11.7,57.64,9.76,86.32,7.54,39.19-3.8,78.44-7.57,117.31-13.95,12.93-2.24,25.86-4.67,38.43-8.49,9.27-2.92,19.09-6.41,25.4-14.2,6.21-7.74,8.62-17.83,9.07-27.59.35-6.56.02-13.13-.48-19.67-4.41-52.31-14.06-104.34-31.99-153.79,0,0,25.76-9.2,25.76-9.2h0Z"/>
    </g>
  </g>
  <g>
    <path d="M79.52,951.38v-5.44c6.9-.72,13.88-4.08,20.95-10.07s13.69-13.51,19.86-22.58c6.16-9.06,10.88-17.96,14.15-26.66l143.66-351.54h4.9l141.49,351.54c15.96,39.55,33.74,59.31,53.33,59.31h1.63v5.44h-174.14v-5.44h2.18c16.33,0,27.29-4.98,32.92-14.96,5.62-9.97,4.8-23.85-2.45-41.63l-32.65-81.08h-131.15l-30.47,75.64c-6.53,15.6-5.71,29.66,2.45,42.17,8.16,12.51,21.31,19.14,39.45,19.86v5.44h-106.11ZM176.92,801.19h125.71l-62.04-156.72-63.67,156.72Z" style="fill: #bf1e2e;"/>
    <path d="M460.98,951.38v-5.44h.54c13.06,0,23.58-3.44,31.56-10.34,7.98-6.89,11.97-16.87,11.97-29.93v-313.45c0-13.06-4-23.58-11.97-31.56-7.98-7.97-18.5-11.97-31.56-11.97h-.54v-5.44h173.59v5.44h-2.18c-13.06,0-23.59,4-31.56,11.97-7.98,7.98-11.97,18.5-11.97,31.56v315.62c0,11.61,2.81,20.59,8.43,26.94,5.62,6.35,15.51,9.52,29.66,9.52h11.43c32.28,0,59.49-9.97,81.63-29.93,22.12-19.95,36.09-48.06,41.9-84.35h5.44l-16.33,121.35h-290.05Z" style="fill: #bf1e2e;"/>
    <path d="M770.61,951.38v-5.44h.54c13.06,0,23.58-3.99,31.56-11.97,7.98-7.97,11.97-18.5,11.97-31.56v-310.18c0-13.06-4-23.58-11.97-31.56-7.98-7.97-18.5-11.97-31.56-11.97h-.54v-5.44h172.5v5.44h-.54c-13.06,0-23.59,4-31.56,11.97-7.98,7.98-11.97,18.5-11.97,31.56v310.18c0,13.06,3.99,23.59,11.97,31.56,7.98,7.98,18.5,11.97,31.56,11.97h.54v5.44h-172.5Z" style="fill: #bf1e2e;"/>
    <path d="M1045.41,951.38l.54-5.44h.54c13.06,0,23.58-3.99,31.56-11.97,7.98-7.97,11.97-18.5,11.97-31.56v-351.54h-15.78c-17.78,0-35.19,2.81-52.24,8.43-17.06,5.63-31.75,15.78-44.08,30.47-12.34,14.69-20.68,35.83-25.03,63.4h-5.44l15.24-109.92h339.02l15.78,109.92h-5.44c-4.35-27.21-12.79-48.24-25.3-63.12-12.51-14.87-27.39-25.12-44.62-30.75-17.24-5.62-35.1-8.43-53.6-8.43h-14.15v351.54c0,13.06,3.99,23.59,11.97,31.56,7.98,7.98,18.5,11.97,31.56,11.97l.54,5.44h-173.05Z" style="fill: #bf1e2e;"/>
    <path d="M1521.01,959c-31.93,0-59.68-6.17-83.26-18.5-23.59-12.33-41.81-29.84-54.69-52.51-12.88-22.67-19.32-49.25-19.32-79.72v-216.04c0-13.06-4-23.58-11.97-31.56-7.98-7.97-18.5-11.97-31.56-11.97h-2.18v-5.44h175.22v5.44h-1.63c-13.06,0-23.58,4-31.56,11.97-7.98,7.98-11.97,18.5-11.97,31.56v216.04c0,38.46,9.88,68.84,29.66,91.15,19.77,22.31,46.53,33.47,80.27,33.47s60.95-11.34,80.54-34.01c19.59-22.67,29.39-52.87,29.39-90.61v-207.87c0-15.59-4.72-27.93-14.15-37.01-9.44-9.06-21.96-13.96-37.55-14.69v-5.44h112.64v5.44c-15.6.73-28.12,5.63-37.55,14.69-9.44,9.07-14.15,21.41-14.15,37.01v207.87c0,30.47-6.26,56.96-18.77,79.45-12.52,22.5-30.47,40-53.88,52.51-23.4,12.52-51.24,18.78-83.53,18.78Z" style="fill: #bf1e2e;"/>
    <path d="M1707.66,951.38v-5.44c13.06,0,23.58-3.99,31.56-11.97,7.97-7.97,11.97-18.5,11.97-31.56v-310.18c0-13.06-4-23.58-11.97-31.56-7.98-7.97-18.5-11.97-31.56-11.97v-5.44h181.75c26.12,0,48.88,4.45,68.3,13.33,19.4,8.9,34.46,21.22,45.17,37.01,10.7,15.78,16.05,34.2,16.05,55.23,0,26.49-8.16,49.16-24.49,68.02-16.33,18.87-38.46,30.3-66.39,34.28,6.16,1.82,13.51,7.26,22.04,16.33,8.52,9.07,16.77,20.32,24.76,33.74l68.57,117.54c5.08,8.35,11.15,14.96,18.23,19.86,7.07,4.9,14.96,7.35,23.67,7.35v5.44h-112.64c-5.09-8.34-10.43-17.41-16.05-27.21-5.63-9.8-10.8-18.86-15.51-27.21l-53.33-97.95c-6.53-11.97-12.07-21.31-16.6-28.02-4.54-6.71-9.07-11.34-13.6-13.88-4.54-2.53-10.26-3.81-17.14-3.81h-5.44v149.1c0,13.06,3.99,23.59,11.97,31.56,7.98,7.98,18.5,11.97,31.56,11.97h1.09v5.44h-171.96ZM1835,746.22h27.75c23.58,0,42.35-9.06,56.32-27.21,13.96-18.13,20.95-41.71,20.95-70.74s-6.72-53.06-20.14-71.01c-13.43-17.96-31.21-26.94-53.33-26.94h-31.56v195.9Z" style="fill: #bf1e2e;"/>
    <path d="M2058.65,951.38v-5.44c6.9-.72,13.88-4.08,20.95-10.07,7.07-5.99,13.69-13.51,19.86-22.58,6.16-9.06,10.88-17.96,14.15-26.66l143.66-351.54h4.9l141.49,351.54c15.96,39.55,33.74,59.31,53.33,59.31h1.63v5.44h-174.14v-5.44h2.18c16.33,0,27.29-4.98,32.92-14.96,5.62-9.97,4.8-23.85-2.45-41.63l-32.65-81.08h-131.15l-30.47,75.64c-6.53,15.6-5.71,29.66,2.45,42.17,8.16,12.51,21.31,19.14,39.45,19.86v5.44h-106.11ZM2156.06,801.19h125.71l-62.04-156.72-63.67,156.72Z" style="fill: #bf1e2e;"/>
  </g>
</svg>